<svg width="114" height="17" viewBox="0 0 114 17" fill="none" xmlns="http://www.w3.org/2000/svg">
<path d="M3.81 12.645C3.17 12.645 2.565 12.54 1.995 12.33C1.435 12.12 0.98 11.82 0.63 11.43C0.28 11.04 0.105 10.58 0.105 10.05C0.105 9.88 0.135 9.7 0.195 9.51C0.275 9.25 0.365 9.12 0.465 9.12C0.615 9.12 0.69 9.205 0.69 9.375C0.69 9.445 0.67 9.54 0.63 9.66C0.59 9.78 0.57 9.895 0.57 10.005C0.57 10.445 0.72 10.83 1.02 11.16C1.32 11.48 1.705 11.725 2.175 11.895C2.655 12.065 3.155 12.15 3.675 12.15C4.805 12.15 5.765 11.88 6.555 11.34C6.965 11.06 7.305 10.725 7.575 10.335C7.845 9.935 7.98 9.51 7.98 9.06C7.98 8.65 7.875 8.31 7.665 8.04C7.465 7.77 7.185 7.54 6.825 7.35C6.465 7.15 6.05 6.97 5.58 6.81C4.24 6.34 3.57 5.77 3.57 5.1C3.57 4.74 3.705 4.395 3.975 4.065C4.245 3.735 4.575 3.445 4.965 3.195C5.355 2.935 5.73 2.74 6.09 2.61C6.62 2.41 7.11 2.275 7.56 2.205C8.02 2.125 8.445 2.085 8.835 2.085C9.365 2.085 9.74 2.21 9.96 2.46C10.18 2.7 10.29 3 10.29 3.36C10.29 3.64 10.22 3.91 10.08 4.17C9.95 4.43 9.77 4.655 9.54 4.845C9.28 5.065 9.07 5.175 8.91 5.175C8.74 5.175 8.655 5.095 8.655 4.935C8.655 4.845 8.7 4.78 8.79 4.74C9.46 4.4 9.795 3.935 9.795 3.345C9.795 3.085 9.72 2.895 9.57 2.775C9.43 2.645 9.185 2.58 8.835 2.58C8.515 2.58 8.155 2.615 7.755 2.685C7.365 2.755 6.965 2.86 6.555 3C6.195 3.13 5.83 3.305 5.46 3.525C5.09 3.745 4.78 3.985 4.53 4.245C4.29 4.505 4.17 4.765 4.17 5.025C4.17 5.575 4.7 6.015 5.76 6.345C7.59 6.925 8.505 7.815 8.505 9.015C8.505 9.375 8.42 9.73 8.25 10.08C8.09 10.43 7.875 10.75 7.605 11.04C7.345 11.33 7.065 11.58 6.765 11.79C6.335 12.09 5.865 12.305 5.355 12.435C4.855 12.575 4.34 12.645 3.81 12.645ZM12.7822 6.09C12.6122 6.09 12.5272 6.005 12.5272 5.835C12.5272 5.785 12.5622 5.695 12.6322 5.565C12.7022 5.425 12.7822 5.285 12.8722 5.145C12.9622 5.005 13.0322 4.91 13.0822 4.86C13.2522 4.67 13.3822 4.55 13.4722 4.5C13.5722 4.45 13.6622 4.425 13.7422 4.425C13.9522 4.425 14.0572 4.52 14.0572 4.71C14.0572 4.78 14.0122 4.865 13.9222 4.965C13.8422 5.055 13.7472 5.14 13.6372 5.22C13.4772 5.32 13.3772 5.4 13.3372 5.46L13.0072 5.925C12.9972 5.965 12.9722 6.005 12.9322 6.045C12.9022 6.075 12.8522 6.09 12.7822 6.09ZM10.2322 12.165C9.95223 12.165 9.74723 12.11 9.61723 12C9.49723 11.89 9.43723 11.725 9.43723 11.505C9.43723 11.295 9.50223 11.01 9.63223 10.65C9.76223 10.28 9.92723 9.885 10.1272 9.465C10.3372 9.045 10.5572 8.645 10.7872 8.265C11.0172 7.885 11.2372 7.575 11.4472 7.335C11.6672 7.085 11.8422 6.96 11.9722 6.96C12.1522 6.96 12.2422 7.04 12.2422 7.2C12.2422 7.3 12.1572 7.49 11.9872 7.77C11.8172 8.05 11.6322 8.34 11.4322 8.64C11.3522 8.75 11.2422 8.9 11.1022 9.09C10.9622 9.28 10.8272 9.46 10.6972 9.63C10.5672 9.79 10.4822 9.9 10.4422 9.96C10.3422 10.11 10.2372 10.355 10.1272 10.695C10.0072 11.035 9.94723 11.295 9.94723 11.475C9.94723 11.555 9.96223 11.615 9.99223 11.655C10.0322 11.695 10.1172 11.715 10.2472 11.715C10.4972 11.715 10.7772 11.635 11.0872 11.475C11.3972 11.315 11.7122 11.115 12.0322 10.875C12.3522 10.625 12.6522 10.37 12.9322 10.11C13.2222 9.85 13.4672 9.625 13.6672 9.435C13.7072 9.395 13.7672 9.375 13.8472 9.375C13.9972 9.375 14.0722 9.435 14.0722 9.555C14.0722 9.665 14.0022 9.79 13.8622 9.93C13.5922 10.2 13.3422 10.44 13.1122 10.65C12.8822 10.86 12.6622 11.045 12.4522 11.205C12.1222 11.445 11.7572 11.665 11.3572 11.865C10.9572 12.065 10.5822 12.165 10.2322 12.165ZM12.7093 12.51C12.5393 12.51 12.4543 12.43 12.4543 12.27C12.4543 12.26 12.5143 12.135 12.6343 11.895C12.7543 11.655 12.9243 11.3 13.1443 10.83L13.9093 9.225C14.2193 8.575 14.4393 8.06 14.5693 7.68C14.7093 7.3 14.7793 7.055 14.7793 6.945C14.7793 6.785 14.8593 6.705 15.0193 6.705C15.1793 6.705 15.2593 6.785 15.2593 6.945C15.2593 7.075 15.2143 7.28 15.1243 7.56C15.0443 7.83 14.9093 8.18 14.7193 8.61L13.9543 10.35C16.0443 7.71 17.6193 6.39 18.6793 6.39C18.8793 6.39 19.0343 6.475 19.1443 6.645C19.2543 6.805 19.3093 6.985 19.3093 7.185C19.3093 7.665 18.9643 8.5 18.2743 9.69C18.8043 9.15 19.3393 8.61 19.8793 8.07C20.4293 7.52 20.9793 6.98 21.5293 6.45C21.6693 6.32 21.7843 6.255 21.8743 6.255C21.9943 6.255 22.0943 6.315 22.1743 6.435C22.2543 6.545 22.2943 6.665 22.2943 6.795C22.2943 6.895 22.2493 7.02 22.1593 7.17C22.0293 7.39 21.9093 7.655 21.7993 7.965C21.6893 8.265 21.5643 8.605 21.4243 8.985C21.2643 9.415 21.1493 9.79 21.0793 10.11C21.0093 10.43 20.9743 10.69 20.9743 10.89C20.9743 11.14 21.0343 11.325 21.1543 11.445C21.2743 11.555 21.3943 11.61 21.5143 11.61C21.7243 11.61 21.9543 11.555 22.2043 11.445C22.4543 11.335 22.6593 11.225 22.8193 11.115C23.1393 10.905 23.4743 10.645 23.8243 10.335C24.1743 10.015 24.5093 9.695 24.8293 9.375C24.8693 9.335 24.9293 9.315 25.0093 9.315C25.1593 9.315 25.2343 9.375 25.2343 9.495C25.2343 9.605 25.1643 9.73 25.0243 9.87C24.6243 10.27 24.2643 10.615 23.9443 10.905C23.6243 11.185 23.3193 11.415 23.0293 11.595C22.8393 11.705 22.6093 11.82 22.3393 11.94C22.0693 12.06 21.7793 12.12 21.4693 12.12C21.1793 12.12 20.9343 12.03 20.7343 11.85C20.5443 11.67 20.4493 11.285 20.4493 10.695C20.4493 10.465 20.4893 10.195 20.5693 9.885C20.6493 9.565 20.7693 9.21 20.9293 8.82L21.7243 6.93L19.5793 9.09C19.3293 9.34 19.1243 9.55 18.9643 9.72C18.8043 9.89 18.6743 10.03 18.5743 10.14C18.3843 10.34 18.2143 10.535 18.0643 10.725C17.9243 10.915 17.8043 11.08 17.7043 11.22C17.6343 11.33 17.5543 11.385 17.4643 11.385C17.2943 11.385 17.2093 11.315 17.2093 11.175C17.2093 10.865 17.4893 10.15 18.0493 9.03C18.6093 7.91 18.8893 7.24 18.8893 7.02C18.8893 6.92 18.7793 6.87 18.5593 6.87C17.6693 6.87 16.0843 8.325 13.8043 11.235C13.6143 11.505 13.2993 11.91 12.8593 12.45C12.8293 12.49 12.7793 12.51 12.7093 12.51ZM23.5425 16.14C23.0725 16.14 22.8375 15.805 22.8375 15.135C22.8375 14.255 23.2225 12.855 23.9925 10.935C24.1225 10.615 24.2775 10.28 24.4575 9.93C24.6375 9.58 24.8475 9.21 25.0875 8.82C25.3375 8.4 25.5725 8.035 25.7925 7.725C26.0225 7.415 26.2225 7.165 26.3925 6.975C26.4525 6.915 26.5025 6.875 26.5425 6.855C26.5925 6.835 26.6325 6.825 26.6625 6.825C26.9225 6.825 27.2175 6.9 27.5475 7.05C27.8775 7.2 28.1725 7.39 28.4325 7.62C28.6725 7.82 28.8675 8.06 29.0175 8.34C29.1675 8.62 29.2425 8.91 29.2425 9.21C29.2425 9.43 29.1975 9.655 29.1075 9.885C29.0275 10.105 28.9175 10.325 28.7775 10.545C29.0375 10.495 29.3525 10.38 29.7225 10.2C30.1025 10.02 30.4875 9.745 30.8775 9.375C30.9175 9.335 30.9725 9.315 31.0425 9.315C31.1925 9.315 31.2675 9.375 31.2675 9.495C31.2675 9.545 31.2425 9.61 31.1925 9.69C31.1525 9.76 31.0775 9.85 30.9675 9.96C30.2275 10.64 29.3375 11.03 28.2975 11.13C28.1475 11.29 27.9825 11.445 27.8025 11.595C27.6325 11.735 27.4525 11.865 27.2625 11.985C26.6825 12.335 26.1875 12.51 25.7775 12.51C25.6075 12.51 25.4675 12.455 25.3575 12.345C25.2475 12.235 25.1925 12.11 25.1925 11.97C25.1925 11.51 25.5925 11.16 26.3925 10.92C26.6825 10.84 26.9725 10.77 27.2625 10.71C27.5525 10.65 27.8375 10.585 28.1175 10.515C28.3175 10.205 28.4625 9.935 28.5525 9.705C28.6525 9.475 28.7025 9.28 28.7025 9.12C28.7025 8.59 28.3075 8.085 27.5175 7.605C27.2075 7.415 26.9625 7.325 26.7825 7.335C25.9625 8.235 25.1875 9.495 24.4575 11.115C23.6975 12.785 23.3175 14.1 23.3175 15.06C23.3175 15.29 23.3375 15.445 23.3775 15.525C23.4175 15.605 23.4875 15.645 23.5875 15.645C23.6175 15.645 23.6425 15.64 23.6625 15.63C23.6825 15.63 23.7025 15.63 23.7225 15.63C23.8525 15.63 23.9175 15.71 23.9175 15.87C23.9175 16.05 23.7925 16.14 23.5425 16.14ZM25.8825 12.03C26.2525 12.03 26.7875 11.74 27.4875 11.16C27.3275 11.18 27.1725 11.205 27.0225 11.235C26.8825 11.265 26.6775 11.32 26.4075 11.4C25.9575 11.53 25.7325 11.695 25.7325 11.895C25.7325 11.985 25.7825 12.03 25.8825 12.03ZM32.0809 12.405C31.6209 12.405 31.2659 12.265 31.0159 11.985C30.7759 11.695 30.6559 11.315 30.6559 10.845C30.6559 10.505 30.7159 10.095 30.8359 9.615C31.0459 8.805 31.4009 7.865 31.9009 6.795C32.2909 5.985 32.7109 5.19 33.1609 4.41C33.6109 3.62 34.1059 2.845 34.6459 2.085C35.5059 0.864999 36.1059 0.254999 36.4459 0.254999C36.6659 0.254999 36.7759 0.314999 36.7759 0.435C36.7759 0.605 36.4959 1.03 35.9359 1.71L34.8859 2.985C33.9759 4.085 33.2309 5.21 32.6509 6.36C32.0809 7.51 31.6359 8.66 31.3159 9.81C31.2259 10.14 31.1809 10.45 31.1809 10.74C31.1809 11.5 31.4909 11.88 32.1109 11.88C32.3309 11.88 32.5559 11.815 32.7859 11.685C33.0159 11.565 33.1409 11.505 33.1609 11.505C33.2809 11.505 33.3409 11.59 33.3409 11.76C33.3409 11.91 33.2859 12.025 33.1759 12.105C32.8359 12.305 32.4709 12.405 32.0809 12.405ZM35.5934 12.27C35.1734 12.27 34.8434 12.125 34.6034 11.835C34.3634 11.545 34.2434 11.19 34.2434 10.77C34.2434 10.05 34.4834 9.31 34.9634 8.55C35.0934 8.34 35.2434 8.135 35.4134 7.935C35.5834 7.725 35.7684 7.525 35.9684 7.335C36.2684 7.045 36.5834 6.805 36.9134 6.615C37.2434 6.425 37.5634 6.33 37.8734 6.33C38.3834 6.33 38.6384 6.57 38.6384 7.05C38.6384 7.65 38.2884 8.195 37.5884 8.685C36.9384 9.125 36.2984 9.345 35.6684 9.345C35.5584 9.345 35.4584 9.34 35.3684 9.33C35.2884 9.31 35.2134 9.29 35.1434 9.27C35.0434 9.46 34.9534 9.705 34.8734 10.005C34.7934 10.305 34.7534 10.565 34.7534 10.785C34.7534 11.445 35.0434 11.775 35.6234 11.775C36.0934 11.775 36.5384 11.695 36.9584 11.535C37.3784 11.365 37.8784 11.05 38.4584 10.59C38.8184 10.31 39.0884 10.085 39.2684 9.915C39.4484 9.745 39.6434 9.565 39.8534 9.375C39.9134 9.335 39.9684 9.315 40.0184 9.315C40.0684 9.315 40.1184 9.33 40.1684 9.36C40.2184 9.39 40.2434 9.435 40.2434 9.495C40.2434 9.605 40.1434 9.76 39.9434 9.96C39.7734 10.12 39.5934 10.29 39.4034 10.47C39.2134 10.64 38.9134 10.88 38.5034 11.19C38.0634 11.53 37.5834 11.795 37.0634 11.985C36.5434 12.175 36.0534 12.27 35.5934 12.27ZM35.5784 8.865C35.8984 8.865 36.2034 8.815 36.4934 8.715C36.7834 8.615 37.0584 8.47 37.3184 8.28C37.8984 7.85 38.1884 7.445 38.1884 7.065C38.1884 6.895 38.0834 6.81 37.8734 6.81C37.4734 6.81 37.0084 7.055 36.4784 7.545C36.2184 7.785 36.0034 8.005 35.8334 8.205C35.6734 8.395 35.5234 8.605 35.3834 8.835C35.4434 8.855 35.5084 8.865 35.5784 8.865ZM43.6445 13.035C43.4545 13.035 43.3595 12.885 43.3595 12.585C43.3595 12.145 43.6045 11.375 44.0945 10.275C44.5945 9.175 45.3345 7.735 46.3145 5.955C45.9345 5.955 45.5745 6.005 45.2345 6.105C44.9045 6.195 44.7295 6.31 44.7095 6.45C44.6995 6.49 44.6745 6.53 44.6345 6.57C44.6045 6.6 44.5545 6.615 44.4845 6.615C44.3245 6.615 44.2445 6.535 44.2445 6.375C44.2445 6.115 44.4495 5.9 44.8595 5.73C45.2695 5.56 45.8445 5.475 46.5845 5.475L47.6195 3.765C47.6895 3.655 47.7645 3.535 47.8445 3.405C47.9245 3.265 48.0145 3.115 48.1145 2.955C48.2145 2.815 48.3295 2.745 48.4595 2.745C48.5395 2.745 48.5995 2.77 48.6395 2.82C48.6795 2.86 48.6995 2.905 48.6995 2.955C48.6995 3.105 48.4795 3.505 48.0395 4.155C47.4895 4.965 47.1945 5.405 47.1545 5.475C47.3045 5.475 47.5295 5.49 47.8295 5.52C48.1295 5.54 48.4845 5.575 48.8945 5.625C49.0445 5.635 49.1195 5.71 49.1195 5.85C49.1195 6.01 49.0295 6.09 48.8495 6.09C48.7795 6.09 48.6395 6.08 48.4295 6.06C48.2195 6.03 47.9945 6.005 47.7545 5.985C47.5145 5.965 47.3095 5.96 47.1395 5.97L46.9145 5.985C44.8845 9.555 43.8745 11.775 43.8845 12.645L43.8995 12.765V12.795C43.8995 12.955 43.8145 13.035 43.6445 13.035ZM46.8772 12.27C46.7172 12.27 46.6372 12.19 46.6372 12.03C46.6372 11.82 46.7122 11.49 46.8622 11.04C47.0122 10.58 47.2072 10.055 47.4472 9.465C47.6972 8.865 47.9622 8.25 48.2422 7.62C48.4022 7.27 48.5672 6.93 48.7372 6.6C48.9072 6.26 49.0672 5.965 49.2172 5.715C50.6972 3.215 51.6172 1.965 51.9772 1.965C52.1172 1.965 52.1872 2.035 52.1872 2.175C52.1872 2.265 52.1172 2.435 51.9772 2.685C51.8472 2.925 51.6722 3.21 51.4522 3.54C51.2422 3.86 51.0122 4.185 50.7622 4.515C50.5222 4.845 50.2922 5.15 50.0722 5.43C49.8622 5.7 49.6922 5.905 49.5622 6.045C49.4522 6.175 49.3272 6.365 49.1872 6.615C49.0572 6.865 48.9272 7.125 48.7972 7.395C48.6672 7.655 48.5622 7.885 48.4822 8.085L47.9122 9.495C48.0622 9.295 48.2572 9.07 48.4972 8.82C49.0672 8.19 49.6572 7.715 50.2672 7.395C50.8872 7.065 51.4072 6.9 51.8272 6.9C52.0572 6.9 52.2422 6.97 52.3822 7.11C52.5222 7.25 52.5922 7.42 52.5922 7.62C52.5922 8.01 52.3372 8.665 51.8272 9.585C51.3172 10.495 51.0622 11.055 51.0622 11.265C51.0622 11.375 51.1222 11.43 51.2422 11.43C51.5222 11.43 51.8272 11.33 52.1572 11.13C52.4872 10.92 52.8272 10.655 53.1772 10.335C53.5272 10.015 53.8672 9.695 54.1972 9.375C54.2372 9.335 54.2972 9.315 54.3772 9.315C54.5272 9.315 54.6022 9.375 54.6022 9.495C54.6022 9.605 54.5322 9.73 54.3922 9.87C53.7222 10.54 53.1472 11.04 52.6672 11.37C52.1872 11.7 51.6822 11.865 51.1522 11.865C50.7522 11.865 50.5522 11.68 50.5522 11.31C50.5522 11.17 50.5772 11.035 50.6272 10.905C50.6772 10.775 50.7572 10.6 50.8672 10.38L51.5572 9.015C51.7272 8.675 51.8522 8.39 51.9322 8.16C52.0122 7.93 52.0522 7.755 52.0522 7.635C52.0522 7.465 51.9472 7.38 51.7372 7.38C51.3672 7.38 50.9322 7.53 50.4322 7.83C49.9422 8.12 49.4172 8.56 48.8572 9.15C48.5372 9.49 48.2472 9.85 47.9872 10.23C47.7372 10.61 47.5372 11.02 47.3872 11.46L47.2072 11.985C47.1372 12.175 47.0272 12.27 46.8772 12.27ZM56.9326 6.09C56.7626 6.09 56.6776 6.005 56.6776 5.835C56.6776 5.785 56.7126 5.695 56.7826 5.565C56.8526 5.425 56.9326 5.285 57.0226 5.145C57.1126 5.005 57.1826 4.91 57.2326 4.86C57.4026 4.67 57.5326 4.55 57.6226 4.5C57.7226 4.45 57.8126 4.425 57.8926 4.425C58.1026 4.425 58.2076 4.52 58.2076 4.71C58.2076 4.78 58.1626 4.865 58.0726 4.965C57.9926 5.055 57.8976 5.14 57.7876 5.22C57.6276 5.32 57.5276 5.4 57.4876 5.46L57.1576 5.925C57.1476 5.965 57.1226 6.005 57.0826 6.045C57.0526 6.075 57.0026 6.09 56.9326 6.09ZM54.3826 12.165C54.1026 12.165 53.8976 12.11 53.7676 12C53.6476 11.89 53.5876 11.725 53.5876 11.505C53.5876 11.295 53.6526 11.01 53.7826 10.65C53.9126 10.28 54.0776 9.885 54.2776 9.465C54.4876 9.045 54.7076 8.645 54.9376 8.265C55.1676 7.885 55.3876 7.575 55.5976 7.335C55.8176 7.085 55.9926 6.96 56.1226 6.96C56.3026 6.96 56.3926 7.04 56.3926 7.2C56.3926 7.3 56.3076 7.49 56.1376 7.77C55.9676 8.05 55.7826 8.34 55.5826 8.64C55.5026 8.75 55.3926 8.9 55.2526 9.09C55.1126 9.28 54.9776 9.46 54.8476 9.63C54.7176 9.79 54.6326 9.9 54.5926 9.96C54.4926 10.11 54.3876 10.355 54.2776 10.695C54.1576 11.035 54.0976 11.295 54.0976 11.475C54.0976 11.555 54.1126 11.615 54.1426 11.655C54.1826 11.695 54.2676 11.715 54.3976 11.715C54.6476 11.715 54.9276 11.635 55.2376 11.475C55.5476 11.315 55.8626 11.115 56.1826 10.875C56.5026 10.625 56.8026 10.37 57.0826 10.11C57.3726 9.85 57.6176 9.625 57.8176 9.435C57.8576 9.395 57.9176 9.375 57.9976 9.375C58.1476 9.375 58.2226 9.435 58.2226 9.555C58.2226 9.665 58.1526 9.79 58.0126 9.93C57.7426 10.2 57.4926 10.44 57.2626 10.65C57.0326 10.86 56.8126 11.045 56.6026 11.205C56.2726 11.445 55.9076 11.665 55.5076 11.865C55.1076 12.065 54.7326 12.165 54.3826 12.165ZM56.8447 12.375C56.6847 12.375 56.6047 12.31 56.6047 12.18C56.6047 12.13 56.6247 12.07 56.6647 12C56.7047 11.92 56.7397 11.855 56.7697 11.805L58.1197 9.09C58.6997 7.91 58.9897 7.255 58.9897 7.125C58.9897 6.985 59.0597 6.915 59.1997 6.915C59.3897 6.915 59.4847 7.015 59.4847 7.215C59.4847 7.285 59.4397 7.435 59.3497 7.665C59.2597 7.895 59.1447 8.155 59.0047 8.445C58.7647 8.965 58.5647 9.365 58.4047 9.645C58.7047 9.295 59.0097 8.965 59.3197 8.655C59.6297 8.345 59.9447 8.05 60.2647 7.77C61.2147 6.94 61.9447 6.525 62.4547 6.525C62.8047 6.525 62.9797 6.69 62.9797 7.02C62.9797 7.32 62.7247 7.995 62.2147 9.045C61.7047 10.105 61.4497 10.775 61.4497 11.055C61.4497 11.185 61.4947 11.25 61.5847 11.25C61.6147 11.25 61.6597 11.24 61.7197 11.22C61.7897 11.19 61.8597 11.175 61.9297 11.175C62.0997 11.175 62.1847 11.255 62.1847 11.415C62.1847 11.615 61.9697 11.715 61.5397 11.715C61.3397 11.715 61.1947 11.67 61.1047 11.58C61.0147 11.48 60.9697 11.35 60.9697 11.19C60.9697 10.71 61.2147 9.98 61.7047 9C62.1947 8.03 62.4397 7.445 62.4397 7.245C62.4397 7.125 62.3947 7.065 62.3047 7.065C62.0847 7.065 61.7297 7.25 61.2397 7.62C60.7097 8.02 60.1797 8.48 59.6497 9C59.1197 9.52 58.6147 10.115 58.1347 10.785L57.0847 12.24C57.0247 12.33 56.9447 12.375 56.8447 12.375ZM63.6166 16.935C63.1966 16.935 62.8816 16.775 62.6716 16.455C62.4616 16.145 62.3566 15.79 62.3566 15.39C62.3566 15.09 62.3716 14.795 62.4016 14.505C62.4216 14.225 62.4566 13.945 62.5066 13.665C62.5366 13.505 62.6066 13.425 62.7166 13.425C62.9166 13.425 63.0166 13.53 63.0166 13.74C63.0166 13.8 63.0016 13.89 62.9716 14.01C62.9416 14.11 62.9266 14.185 62.9266 14.235C62.9066 14.395 62.8916 14.56 62.8816 14.73C62.8716 14.91 62.8666 15.09 62.8666 15.27C62.8666 16.06 63.1566 16.455 63.7366 16.455C63.9066 16.455 64.1016 16.34 64.3216 16.11C64.5516 15.88 64.7566 15.63 64.9366 15.36C65.3566 14.73 65.8016 13.735 66.2716 12.375L66.7666 10.95C65.9566 11.92 65.2266 12.405 64.5766 12.405C64.1766 12.405 63.8666 12.255 63.6466 11.955C63.4266 11.655 63.3166 11.29 63.3166 10.86C63.3166 10 63.6966 9.05 64.4566 8.01C65.2866 6.9 66.1016 6.345 66.9016 6.345C67.5316 6.345 67.9466 6.715 68.1466 7.455C68.5266 6.535 68.8766 6.075 69.1966 6.075C69.3166 6.075 69.3766 6.175 69.3766 6.375C69.3766 6.775 69.1916 7.31 68.8216 7.98C68.7416 8.11 68.6416 8.27 68.5216 8.46C68.4116 8.65 68.2866 8.875 68.1466 9.135L67.6366 10.38C67.5366 10.62 67.4116 10.925 67.2616 11.295C67.1116 11.655 66.9416 12.08 66.7516 12.57C66.5316 13.17 66.3266 13.685 66.1366 14.115C65.9566 14.555 65.7916 14.915 65.6416 15.195C64.9916 16.355 64.3366 16.935 63.6766 16.935H63.6166ZM64.5766 11.88C65.2066 11.88 66.1366 11.035 67.3666 9.345L67.8016 8.235C67.7316 8.185 67.6816 8.08 67.6516 7.92C67.5616 7.49 67.4566 7.205 67.3366 7.065C67.2166 6.925 67.0566 6.855 66.8566 6.855C66.6266 6.855 66.3616 6.96 66.0616 7.17C65.7616 7.38 65.4766 7.64 65.2066 7.95C64.9366 8.25 64.7216 8.545 64.5616 8.835C64.0816 9.655 63.8416 10.36 63.8416 10.95C63.8416 11.57 64.0866 11.88 64.5766 11.88ZM69.5203 12.495C68.9603 12.495 68.6803 12.31 68.6803 11.94C68.6803 11.71 68.7603 11.48 68.9203 11.25C69.0903 11.02 69.2903 10.81 69.5203 10.62C69.7503 10.43 69.9653 10.285 70.1653 10.185C70.2253 10.155 70.3053 10.125 70.4053 10.095C70.5153 10.065 70.6053 10.05 70.6753 10.05C70.7553 10.05 70.7953 10.08 70.7953 10.14C70.7953 10.19 70.7403 10.245 70.6303 10.305C70.1703 10.525 69.8103 10.79 69.5503 11.1C69.3003 11.4 69.1753 11.645 69.1753 11.835C69.1753 12.015 69.3303 12.105 69.6403 12.105C69.9003 12.105 70.1803 12.04 70.4803 11.91C70.7903 11.78 71.0803 11.61 71.3503 11.4C71.6303 11.19 71.8603 10.965 72.0403 10.725C72.2203 10.485 72.3103 10.255 72.3103 10.035C72.3103 9.885 72.2603 9.75 72.1603 9.63C72.0703 9.51 71.9203 9.42 71.7103 9.36L70.7203 9.06C70.4703 8.98 70.2903 8.875 70.1803 8.745C70.0703 8.615 70.0153 8.47 70.0153 8.31C70.0153 8.01 70.1253 7.74 70.3453 7.5C70.5753 7.26 70.8603 7.07 71.2003 6.93C71.5403 6.79 71.8703 6.72 72.1903 6.72C72.5103 6.72 72.7903 6.8 73.0303 6.96C73.2703 7.11 73.3903 7.315 73.3903 7.575C73.3903 7.725 73.3453 7.865 73.2553 7.995C73.1753 8.125 73.0803 8.19 72.9703 8.19C72.8003 8.19 72.7153 8.12 72.7153 7.98C72.7153 7.93 72.7403 7.87 72.7903 7.8C72.8503 7.72 72.8803 7.645 72.8803 7.575C72.8803 7.275 72.6503 7.125 72.1903 7.125C71.9403 7.125 71.6903 7.18 71.4403 7.29C71.2003 7.39 71.0003 7.525 70.8403 7.695C70.6803 7.865 70.6003 8.05 70.6003 8.25C70.6003 8.45 70.8003 8.61 71.2003 8.73L72.1603 9.03C72.4503 9.12 72.6503 9.245 72.7603 9.405C72.8703 9.555 72.9253 9.725 72.9253 9.915C72.9253 10.365 72.6503 10.83 72.1003 11.31C71.2103 12.1 70.3503 12.495 69.5203 12.495ZM77.6166 12.51C77.4466 12.51 77.3616 12.43 77.3616 12.27C77.3616 12.26 77.4216 12.135 77.5416 11.895C77.6616 11.655 77.8316 11.3 78.0516 10.83L78.8166 9.225C79.1266 8.575 79.3466 8.06 79.4766 7.68C79.6166 7.3 79.6866 7.055 79.6866 6.945C79.6866 6.785 79.7666 6.705 79.9266 6.705C80.0866 6.705 80.1666 6.785 80.1666 6.945C80.1666 7.075 80.1216 7.28 80.0316 7.56C79.9516 7.83 79.8166 8.18 79.6266 8.61L78.8616 10.35C80.9516 7.71 82.5266 6.39 83.5866 6.39C83.7866 6.39 83.9416 6.475 84.0516 6.645C84.1616 6.805 84.2166 6.985 84.2166 7.185C84.2166 7.665 83.8716 8.5 83.1816 9.69C83.7116 9.15 84.2466 8.61 84.7866 8.07C85.3366 7.52 85.8866 6.98 86.4366 6.45C86.5766 6.32 86.6916 6.255 86.7816 6.255C86.9016 6.255 87.0016 6.315 87.0816 6.435C87.1616 6.545 87.2016 6.665 87.2016 6.795C87.2016 6.895 87.1566 7.02 87.0666 7.17C86.9366 7.39 86.8166 7.655 86.7066 7.965C86.5966 8.265 86.4716 8.605 86.3316 8.985C86.1716 9.415 86.0566 9.79 85.9866 10.11C85.9166 10.43 85.8816 10.69 85.8816 10.89C85.8816 11.14 85.9416 11.325 86.0616 11.445C86.1816 11.555 86.3016 11.61 86.4216 11.61C86.6316 11.61 86.8616 11.555 87.1116 11.445C87.3616 11.335 87.5666 11.225 87.7266 11.115C88.0466 10.905 88.3816 10.645 88.7316 10.335C89.0816 10.015 89.4166 9.695 89.7366 9.375C89.7766 9.335 89.8366 9.315 89.9166 9.315C90.0666 9.315 90.1416 9.375 90.1416 9.495C90.1416 9.605 90.0716 9.73 89.9316 9.87C89.5316 10.27 89.1716 10.615 88.8516 10.905C88.5316 11.185 88.2266 11.415 87.9366 11.595C87.7466 11.705 87.5166 11.82 87.2466 11.94C86.9766 12.06 86.6866 12.12 86.3766 12.12C86.0866 12.12 85.8416 12.03 85.6416 11.85C85.4516 11.67 85.3566 11.285 85.3566 10.695C85.3566 10.465 85.3966 10.195 85.4766 9.885C85.5566 9.565 85.6766 9.21 85.8366 8.82L86.6316 6.93L84.4866 9.09C84.2366 9.34 84.0316 9.55 83.8716 9.72C83.7116 9.89 83.5816 10.03 83.4816 10.14C83.2916 10.34 83.1216 10.535 82.9716 10.725C82.8316 10.915 82.7116 11.08 82.6116 11.22C82.5416 11.33 82.4616 11.385 82.3716 11.385C82.2016 11.385 82.1166 11.315 82.1166 11.175C82.1166 10.865 82.3966 10.15 82.9566 9.03C83.5166 7.91 83.7966 7.24 83.7966 7.02C83.7966 6.92 83.6866 6.87 83.4666 6.87C82.5766 6.87 80.9916 8.325 78.7116 11.235C78.5216 11.505 78.2066 11.91 77.7666 12.45C77.7366 12.49 77.6866 12.51 77.6166 12.51ZM89.8897 12.15C89.3097 12.15 89.0197 11.875 89.0197 11.325C89.0197 10.965 89.1047 10.58 89.2747 10.17C89.4547 9.75 89.6947 9.345 89.9947 8.955C90.2947 8.555 90.6297 8.195 90.9997 7.875C91.3697 7.545 91.7497 7.285 92.1397 7.095C92.5297 6.895 92.9047 6.795 93.2647 6.795C93.9047 6.795 94.2247 7.11 94.2247 7.74C94.2247 8.15 94.1247 8.355 93.9247 8.355C93.7447 8.355 93.6547 8.27 93.6547 8.1C93.6547 8.03 93.6697 7.96 93.6997 7.89C93.7397 7.81 93.7597 7.725 93.7597 7.635C93.7597 7.355 93.5697 7.215 93.1897 7.215C92.5797 7.215 91.8147 7.68 90.8947 8.61C90.6747 8.84 90.4597 9.11 90.2497 9.42C90.0397 9.73 89.8647 10.045 89.7247 10.365C89.5947 10.675 89.5297 10.97 89.5297 11.25C89.5297 11.52 89.6797 11.655 89.9797 11.655C90.2397 11.655 90.5147 11.575 90.8047 11.415C91.1047 11.255 91.3647 11.09 91.5847 10.92C92.0247 10.59 92.4747 10.14 92.9347 9.57C93.0047 9.49 93.0947 9.385 93.2047 9.255C93.3147 9.125 93.4397 8.98 93.5797 8.82C93.6297 8.77 93.6897 8.745 93.7597 8.745C93.9197 8.745 93.9997 8.825 93.9997 8.985L93.4297 9.84C93.0497 10.4 92.8597 10.86 92.8597 11.22C92.8597 11.48 92.9847 11.61 93.2347 11.61C93.4447 11.61 93.6747 11.555 93.9247 11.445C94.1747 11.335 94.3797 11.225 94.5397 11.115C94.8597 10.905 95.1947 10.645 95.5447 10.335C95.8947 10.015 96.2297 9.695 96.5497 9.375C96.5897 9.335 96.6497 9.315 96.7297 9.315C96.8797 9.315 96.9547 9.375 96.9547 9.495C96.9547 9.605 96.8847 9.73 96.7447 9.87C96.3447 10.27 95.9847 10.615 95.6647 10.905C95.3447 11.185 95.0397 11.415 94.7497 11.595C94.5597 11.705 94.3247 11.82 94.0447 11.94C93.7647 12.06 93.4447 12.12 93.0847 12.12C92.5947 12.12 92.3497 11.86 92.3497 11.34C92.3497 11.14 92.3747 10.975 92.4247 10.845C91.5147 11.715 90.6697 12.15 89.8897 12.15ZM96.0713 13.035C95.8813 13.035 95.7863 12.885 95.7863 12.585C95.7863 12.145 96.0313 11.375 96.5213 10.275C97.0213 9.175 97.7613 7.735 98.7413 5.955C98.3613 5.955 98.0013 6.005 97.6613 6.105C97.3313 6.195 97.1563 6.31 97.1362 6.45C97.1263 6.49 97.1013 6.53 97.0613 6.57C97.0313 6.6 96.9813 6.615 96.9113 6.615C96.7513 6.615 96.6713 6.535 96.6713 6.375C96.6713 6.115 96.8763 5.9 97.2863 5.73C97.6963 5.56 98.2713 5.475 99.0112 5.475L100.046 3.765C100.116 3.655 100.191 3.535 100.271 3.405C100.351 3.265 100.441 3.115 100.541 2.955C100.641 2.815 100.756 2.745 100.886 2.745C100.966 2.745 101.026 2.77 101.066 2.82C101.106 2.86 101.126 2.905 101.126 2.955C101.126 3.105 100.906 3.505 100.466 4.155C99.9163 4.965 99.6213 5.405 99.5813 5.475C99.7313 5.475 99.9563 5.49 100.256 5.52C100.556 5.54 100.911 5.575 101.321 5.625C101.471 5.635 101.546 5.71 101.546 5.85C101.546 6.01 101.456 6.09 101.276 6.09C101.206 6.09 101.066 6.08 100.856 6.06C100.646 6.03 100.421 6.005 100.181 5.985C99.9413 5.965 99.7363 5.96 99.5662 5.97L99.3413 5.985C97.3113 9.555 96.3013 11.775 96.3113 12.645L96.3263 12.765V12.795C96.3263 12.955 96.2413 13.035 96.0713 13.035ZM99.499 13.035C99.309 13.035 99.214 12.885 99.214 12.585C99.214 12.145 99.459 11.375 99.949 10.275C100.449 9.175 101.189 7.735 102.169 5.955C101.789 5.955 101.429 6.005 101.089 6.105C100.759 6.195 100.584 6.31 100.564 6.45C100.554 6.49 100.529 6.53 100.489 6.57C100.459 6.6 100.409 6.615 100.339 6.615C100.179 6.615 100.099 6.535 100.099 6.375C100.099 6.115 100.304 5.9 100.714 5.73C101.124 5.56 101.699 5.475 102.439 5.475L103.474 3.765C103.544 3.655 103.619 3.535 103.699 3.405C103.779 3.265 103.869 3.115 103.969 2.955C104.069 2.815 104.184 2.745 104.314 2.745C104.394 2.745 104.454 2.77 104.494 2.82C104.534 2.86 104.554 2.905 104.554 2.955C104.554 3.105 104.334 3.505 103.894 4.155C103.344 4.965 103.049 5.405 103.009 5.475C103.159 5.475 103.384 5.49 103.684 5.52C103.984 5.54 104.339 5.575 104.749 5.625C104.899 5.635 104.974 5.71 104.974 5.85C104.974 6.01 104.884 6.09 104.704 6.09C104.634 6.09 104.494 6.08 104.284 6.06C104.074 6.03 103.849 6.005 103.609 5.985C103.369 5.965 103.164 5.96 102.994 5.97L102.769 5.985C100.739 9.555 99.729 11.775 99.739 12.645L99.754 12.765V12.795C99.754 12.955 99.669 13.035 99.499 13.035ZM104.412 12.27C103.992 12.27 103.662 12.125 103.422 11.835C103.182 11.545 103.062 11.19 103.062 10.77C103.062 10.05 103.302 9.31 103.782 8.55C103.912 8.34 104.062 8.135 104.232 7.935C104.402 7.725 104.587 7.525 104.787 7.335C105.087 7.045 105.402 6.805 105.732 6.615C106.062 6.425 106.382 6.33 106.692 6.33C107.202 6.33 107.457 6.57 107.457 7.05C107.457 7.65 107.107 8.195 106.407 8.685C105.757 9.125 105.117 9.345 104.487 9.345C104.377 9.345 104.277 9.34 104.187 9.33C104.107 9.31 104.032 9.29 103.962 9.27C103.862 9.46 103.772 9.705 103.692 10.005C103.612 10.305 103.572 10.565 103.572 10.785C103.572 11.445 103.862 11.775 104.442 11.775C104.912 11.775 105.357 11.695 105.777 11.535C106.197 11.365 106.697 11.05 107.277 10.59C107.637 10.31 107.907 10.085 108.087 9.915C108.267 9.745 108.462 9.565 108.672 9.375C108.732 9.335 108.787 9.315 108.837 9.315C108.887 9.315 108.937 9.33 108.987 9.36C109.037 9.39 109.062 9.435 109.062 9.495C109.062 9.605 108.962 9.76 108.762 9.96C108.592 10.12 108.412 10.29 108.222 10.47C108.032 10.64 107.732 10.88 107.322 11.19C106.882 11.53 106.402 11.795 105.882 11.985C105.362 12.175 104.872 12.27 104.412 12.27ZM104.397 8.865C104.717 8.865 105.022 8.815 105.312 8.715C105.602 8.615 105.877 8.47 106.137 8.28C106.717 7.85 107.007 7.445 107.007 7.065C107.007 6.895 106.902 6.81 106.692 6.81C106.292 6.81 105.827 7.055 105.297 7.545C105.037 7.785 104.822 8.005 104.652 8.205C104.492 8.395 104.342 8.605 104.202 8.835C104.262 8.855 104.327 8.865 104.397 8.865ZM107.66 12.375C107.5 12.375 107.42 12.31 107.42 12.18C107.42 12.12 107.435 12.06 107.465 12C107.505 11.94 107.535 11.89 107.555 11.85L108.92 9.09C109.5 7.91 109.79 7.255 109.79 7.125C109.79 6.985 109.86 6.915 110 6.915C110.19 6.915 110.285 7.01 110.285 7.2C110.285 7.3 110.24 7.46 110.15 7.68C110.06 7.9 109.945 8.155 109.805 8.445C109.565 8.965 109.365 9.365 109.205 9.645C109.505 9.295 109.81 8.965 110.12 8.655C110.43 8.345 110.745 8.05 111.065 7.77C112.015 6.94 112.745 6.525 113.255 6.525C113.605 6.525 113.78 6.69 113.78 7.02C113.78 7.34 113.675 7.5 113.465 7.5C113.365 7.5 113.29 7.415 113.24 7.245C113.21 7.125 113.14 7.065 113.03 7.065C112.86 7.065 112.53 7.25 112.04 7.62C111.5 8.02 110.955 8.495 110.405 9.045C109.865 9.595 109.29 10.295 108.68 11.145L107.93 12.195C107.89 12.245 107.85 12.285 107.81 12.315C107.78 12.355 107.73 12.375 107.66 12.375Z" fill="white"/>
</svg>
