<svg width="102" height="102" viewBox="0 0 102 102" fill="none" xmlns="http://www.w3.org/2000/svg">
<path d="M54.8339 60.6734C57.0172 58.47 59.4594 57.5309 62.8307 56.8405C66.8773 56.2315 70.3248 53.7692 72.5031 50.4692C75.1695 46.4296 76.122 41.4963 75.151 36.7545C74.1801 32.0127 71.3652 27.8508 67.3257 25.1844C63.2862 22.518 58.3528 21.5655 53.611 22.5364C48.8692 23.5074 44.7073 26.3223 42.0409 30.3618C40.3653 32.9003 38.8623 36.2817 39.9841 41.76C40.5881 44.7099 40.7707 47.7461 39.6028 50.6197" stroke="white" stroke-width="2" stroke-linecap="round" stroke-linejoin="round"/>
<path d="M32.9003 60.7738L48.1314 70.8275" stroke="white" stroke-width="2" stroke-linecap="round" stroke-linejoin="round"/>
<path d="M52.4673 17.1563L52 7.00001" stroke="white" stroke-width="2" stroke-linecap="round" stroke-linejoin="round"/>
<path d="M28.7364 72.6035L38.8904 79.3059" stroke="white" stroke-width="2" stroke-linecap="round" stroke-linejoin="round"/>
<path d="M81 40L93.1264 40.9896" stroke="white" stroke-width="2" stroke-linecap="round" stroke-linejoin="round"/>
<path d="M61.1538 47.2283L64.2716 45.6605L68.2663 42.3281L70.5569 39.635L69.0695 36.7453L61.1538 47.2283Z" stroke="white" stroke-width="2" stroke-linecap="round" stroke-linejoin="round"/>
<path d="M73 22.8219L79.4952 15" stroke="white" stroke-width="2" stroke-linecap="round" stroke-linejoin="round"/>
</svg>
